<svg xmlns="http://www.w3.org/2000/svg" viewBox="0 0 64 64" width="64" height="64">
  <rect width="64" height="64" rx="13" fill="#0A0A0A"/>
  <circle cx="32" cy="27" r="15" fill="none" stroke="#C9973A" stroke-width="1.4"/>
  <path d="M32 13.5 a15 15 0 0 0 0 27 a12 12 0 0 1 0 -27Z" fill="#0A0A0A"/>
  <circle cx="32" cy="18.5" r="0.9" fill="#C9973A"/>
  <circle cx="32" cy="35.5" r="0.9" fill="#C9973A"/>
  <path d="M32 20 L33.4 25.6 L39 27 L33.4 28.4 L32 34 L30.6 28.4 L25 27 L30.6 25.6 Z" fill="#E8D5A3"/>
  <path d="M32 46 L33 49.4 L36 50 L33 50.6 L32 54 L31 50.6 L28 50 L31 49.4 Z" fill="#C9973A"/>
</svg>
